<?xml version="1.0" encoding="utf-8"?>
<!-- Generator: Adobe Illustrator 21.1.0, SVG Export Plug-In . SVG Version: 6.00 Build 0)  -->
<svg version="1.1" id="Layer_1" xmlns="http://www.w3.org/2000/svg" xmlns:xlink="http://www.w3.org/1999/xlink" x="0px" y="0px"
	 viewBox="0 0 670 373.56" style="enable-background:new 0 0 670 373.56;" xml:space="preserve">
<style type="text/css">
	.st0{fill:#FFFFFF;}
</style>
<g>
	<g>
		<path class="st0" d="M554.32,0c16,0,30.99,3,45.01,8.99c13.98,6,26.25,14.12,36.82,24.4s18.86,22.28,24.86,35.98
			c6,13.74,8.99,28.59,8.99,44.56c0,16-3,30.85-8.99,44.56c-6,13.74-14.29,25.73-24.86,36.01c-10.56,10.25-22.84,18.41-36.82,24.4
			c-14.02,6-29.01,8.99-45.01,8.99H82.24v104.52c0,11.44-4.15,21.16-12.41,29.15c-8.3,8.02-17.88,11.99-28.73,11.99
			c-11.4,0-21.13-3.97-29.11-11.99C3.97,353.58,0,343.86,0,332.42V41.1c0-11.4,3.97-21.09,11.99-29.11C19.98,4.01,29.7,0,41.1,0
			H554.32z M82.24,82.24v63.42h475.53c8.58,0,16.11-3,22.7-8.99c6.55-6,9.87-13.56,9.87-22.73c0-8.54-3.31-15.97-9.87-22.28
			c-6.59-6.28-14.12-9.41-22.7-9.41H82.24z"/>
	</g>
	<g>
		<path class="st0" d="M204.13,313.47c1.81,0,3.36,0.64,4.63,1.91c1.28,1.28,1.91,2.82,1.91,4.63c0,1.82-0.63,3.37-1.91,4.64
			c-1.27,1.28-2.82,1.91-4.63,1.91h-40.38v39.83c0,1.82-0.64,3.37-1.91,4.64c-1.27,1.28-2.82,1.91-4.63,1.91
			c-1.82,0-3.37-0.63-4.64-1.91c-1.28-1.27-1.91-2.82-1.91-4.64v-39.83h-40.92c-1.64-0.18-3.05-0.89-4.23-2.11
			c-1.18-1.23-1.77-2.7-1.77-4.43c0-1.81,0.63-3.36,1.91-4.63c1.27-1.27,2.82-1.91,4.63-1.91H204.13z"/>
		<path class="st0" d="M237.41,343.21c0,1.64,0.21,3.44,0.62,5.39c0.41,1.96,1.18,3.75,2.31,5.39c1.14,1.64,2.69,3.02,4.64,4.16
			c1.95,1.14,4.52,1.71,7.71,1.71h54.29c3.09,0,5.64-0.57,7.64-1.71c2-1.13,3.57-2.52,4.71-4.16c1.14-1.64,1.91-3.43,2.32-5.39
			c0.41-1.95,0.61-3.75,0.61-5.39v-23.05c0-1.82,0.64-3.36,1.91-4.64c1.28-1.27,2.82-1.91,4.64-1.91s3.36,0.64,4.64,1.91
			c1.27,1.28,1.91,2.82,1.91,4.64v23.05c0,3.46-0.57,6.94-1.71,10.43c-1.14,3.5-2.79,6.69-4.98,9.55c-2.18,2.86-4.82,5.21-7.91,7.02
			c-3.09,1.82-6.59,2.73-10.5,2.73h-62.2c-3.73-0.18-7.05-1.2-9.96-3.07c-2.91-1.86-5.39-4.21-7.43-7.03
			c-2.05-2.81-3.62-5.96-4.71-9.41c-1.09-3.46-1.64-6.87-1.64-10.23v-23.05c0-1.82,0.63-3.36,1.91-4.64
			c1.27-1.27,2.82-1.91,4.63-1.91c1.82,0,3.36,0.64,4.64,1.91c1.27,1.28,1.91,2.82,1.91,4.64V343.21z"/>
		<path class="st0" d="M436.69,349.75c2.46,1.55,4.96,3.21,7.5,4.98c2.54,1.78,5.13,3.71,7.78,5.8c1,0.73,1.86,1.57,2.59,2.52
			c0.73,0.95,1.09,2.07,1.09,3.34c0,1.82-0.64,3.37-1.91,4.64c-1.27,1.28-2.82,1.91-4.63,1.91c-1.55,0-3.1-0.63-4.64-1.91
			c-3.73-2.73-7.55-5.37-11.46-7.91c-3.91-2.54-7.98-4.82-12.21-6.82c-4.23-2-8.61-3.59-13.16-4.77c-4.55-1.18-9.27-1.78-14.18-1.78
			h-27.15c-1.18,0.18-2.18,0.73-3,1.64c-0.82,0.91-1.23,2.05-1.23,3.41v11.59c0,1.82-0.66,3.37-1.98,4.64
			c-1.32,1.28-2.85,1.91-4.57,1.91c-1.81,0-3.36-0.63-4.63-1.91c-1.28-1.27-1.91-2.82-1.91-4.64V353.3c0-2.27,0.43-4.43,1.29-6.48
			c0.87-2.05,2.03-3.82,3.48-5.32c1.45-1.5,3.18-2.68,5.18-3.55c2-0.86,4.18-1.29,6.54-1.29h72.3c1.37,0,2.56-0.48,3.61-1.43
			c1.04-0.95,1.57-2.16,1.57-3.62c0-1.36-0.53-2.54-1.57-3.55c-1.05-1-2.25-1.5-3.61-1.5h-82.25c-1.81,0-3.36-0.63-4.63-1.91
			c-1.28-1.27-1.91-2.82-1.91-4.64c0-1.81,0.63-3.36,1.91-4.63c1.27-1.27,2.82-1.91,4.63-1.91h81.7c2.55,0,4.93,0.48,7.17,1.43
			c2.23,0.95,4.18,2.25,5.86,3.89s3,3.55,3.96,5.73c0.95,2.19,1.43,4.55,1.43,7.09c0,2.55-0.48,4.91-1.43,7.09
			c-0.95,2.19-2.28,4.1-3.96,5.73c-1.68,1.63-3.64,2.93-5.86,3.89c-2.23,0.95-4.62,1.43-7.17,1.43H436.69z"/>
		<path class="st0" d="M469.29,320.02c0-1.81,0.63-3.36,1.91-4.63c1.27-1.27,2.82-1.91,4.63-1.91h96.71c1.81,0,3.36,0.64,4.63,1.91
			c1.28,1.28,1.91,2.82,1.91,4.63c0,1.82-0.63,3.37-1.91,4.64c-1.27,1.28-2.82,1.91-4.63,1.91h-96.71c-1.81,0-3.36-0.63-4.63-1.91
			C469.92,323.39,469.29,321.84,469.29,320.02z M485.93,372.94c-2,0-4-0.43-6-1.3c-2-0.86-3.77-2.06-5.32-3.61
			c-1.55-1.54-2.82-3.41-3.82-5.59c-1-2.19-1.5-4.64-1.5-7.37V342.8c0-2.46,0.7-4.1,2.11-4.91c1.41-0.82,3.61-1.23,6.62-1.23h91.52
			c1.82,0,3.36,0.64,4.64,1.91c1.27,1.27,1.91,2.82,1.91,4.63c0,1.82-0.64,3.37-1.91,4.64c-1.28,1.28-2.82,1.91-4.64,1.91h-87.16
			v6.68c0,0.91,0.39,1.7,1.16,2.39c0.77,0.68,1.79,1.03,3.07,1.03h85.93c1.81,0,3.36,0.63,4.63,1.91c1.28,1.27,1.91,2.82,1.91,4.63
			c0,1.82-0.63,3.37-1.91,4.64c-1.27,1.28-2.82,1.91-4.63,1.91H485.93z"/>
	</g>
</g>
</svg>
